<svg viewBox="0 0 400 240" fill="none" xmlns="http://www.w3.org/2000/svg">
  <rect width="400" height="240" fill="#1A2332"/>
  <rect x="30" y="30" width="340" height="180" rx="10" stroke="#F59E0B" stroke-width="2" fill="none" opacity="0.4"/>
  <rect x="50" y="48" width="300" height="100" rx="6" fill="#0B1120" stroke="#334155" stroke-width="1.5"/>
  <rect x="62" y="60" width="14" height="14" rx="3" fill="#EF4444" opacity="0.7"/>
  <rect x="84" y="60" width="14" height="14" rx="3" fill="#F59E0B" opacity="0.7"/>
  <rect x="106" y="60" width="14" height="14" rx="3" fill="#34D399" opacity="0.7"/>
  <text x="62" y="92" font-family="monospace" font-size="11" fill="#64748B">function</text>
  <text x="130" y="92" font-family="monospace" font-size="11" fill="#60A5FA">parseSyntax</text>
  <text x="246" y="92" font-family="monospace" font-size="11" fill="#64748B">(input) {</text>
  <text x="78" y="112" font-family="monospace" font-size="11" fill="#A78BFA">const ast = tokenize(input);</text>
  <text x="78" y="130" font-family="monospace" font-size="11" fill="#34D399">return optimize(ast);</text>
  <text x="62" y="148" font-family="monospace" font-size="11" fill="#64748B">}</text>
  <circle cx="298" cy="62" r="5" fill="#F59E0B" opacity="0.5"/>
  <rect x="50" y="160" width="100" height="28" rx="5" fill="#F59E0B" opacity="0.15"/>
  <text x="62" y="179" font-family="monospace" font-size="10" fill="#F59E0B" font-weight="600">AST Generated ✓</text>
  <rect x="165" y="160" width="100" height="28" rx="5" fill="#34D399" opacity="0.15"/>
  <text x="177" y="179" font-family="monospace" font-size="10" fill="#34D399" font-weight="600">Optimized ✓</text>
  <rect x="280" y="160" width="60" height="28" rx="5" fill="#60A5FA" opacity="0.15"/>
  <text x="290" y="179" font-family="monospace" font-size="10" fill="#60A5FA" font-weight="600">Graphviz</text>
</svg>