<svg viewBox="0 0 400 240" fill="none" xmlns="http://www.w3.org/2000/svg">
  <rect width="400" height="240" fill="linear-gradient(135deg, #1A2332, #111827)"/>
  <rect x="60" y="40" width="280" height="160" rx="8" stroke="#F59E0B" stroke-width="2" fill="none" opacity="0.4"/>
  <rect x="80" y="55" width="110" height="8" rx="4" fill="#F59E0B" opacity="0.8"/>
  <rect x="80" y="72" width="200" height="4" rx="2" fill="#64748B" opacity="0.5"/>
  <rect x="80" y="84" width="180" height="4" rx="2" fill="#64748B" opacity="0.5"/>
  <rect x="80" y="96" width="220" height="4" rx="2" fill="#64748B" opacity="0.5"/>
  <circle cx="100" cy="145" r="22" fill="#F59E0B" opacity="0.2"/>
  <circle cx="100" cy="145" r="12" fill="#F59E0B" opacity="0.4"/>
  <circle cx="100" cy="145" r="5" fill="#F59E0B" opacity="0.7"/>
  <rect x="140" y="130" width="130" height="34" rx="6" fill="#F59E0B" opacity="0.15"/>
  <text x="150" y="152" font-family="Inter, sans-serif" font-size="12" fill="#F59E0B" font-weight="600">5 Enrolled</text>
  <rect x="210" y="55" width="90" height="90" rx="8" fill="#F59E0B" opacity="0.06"/>
  <rect x="220" y="65" width="70" height="6" rx="3" fill="#F59E0B" opacity="0.3"/>
  <rect x="220" y="78" width="50" height="4" rx="2" fill="#64748B" opacity="0.4"/>
  <rect x="220" y="88" width="60" height="4" rx="2" fill="#64748B" opacity="0.4"/>
  <rect x="220" y="98" width="40" height="4" rx="2" fill="#64748B" opacity="0.4"/>
  <rect x="220" y="112" width="70" height="22" rx="4" fill="#F59E0B" opacity="0.2"/>
  <text x="232" y="127" font-family="Inter, sans-serif" font-size="8" fill="#F59E0B" opacity="0.7">Dashboard</text>
  <rect x="80" y="172" width="60" height="10" rx="4" fill="#34D399" opacity="0.5"/>
  <rect x="148" y="172" width="60" height="10" rx="4" fill="#60A5FA" opacity="0.5"/>
  <rect x="216" y="172" width="60" height="10" rx="4" fill="#A78BFA" opacity="0.5"/>
</svg>