<svg viewBox="0 0 400 240" fill="none" xmlns="http://www.w3.org/2000/svg">
  <rect width="400" height="240" fill="#1A2332"/>
  <rect x="25" y="30" width="350" height="180" rx="10" stroke="#F59E0B" stroke-width="2" fill="none" opacity="0.4"/>
  <rect x="45" y="50" width="310" height="60" rx="8" fill="#0B1120" stroke="#334155" stroke-width="1"/>
  <circle cx="80" cy="80" r="18" fill="#EF4444" opacity="0.2"/>
  <circle cx="80" cy="80" r="10" fill="#EF4444" opacity="0.5"/>
  <text x="75" y="84" font-family="Inter, sans-serif" font-size="9" fill="#fff" font-weight="700">A</text>
  <line x1="98" y1="68" x2="145" y2="68" stroke="#F59E0B" stroke-width="2" stroke-dasharray="5 4" opacity="0.6"/>
  <polygon points="145,62 158,68 145,74" fill="#F59E0B" opacity="0.8"/>
  <text x="108" y="63" font-family="monospace" font-size="8" fill="#F59E0B" opacity="0.7">12 min</text>
  <circle cx="200" cy="80" r="18" fill="#60A5FA" opacity="0.2"/>
  <circle cx="200" cy="80" r="10" fill="#60A5FA" opacity="0.5"/>
  <text x="195" y="84" font-family="Inter, sans-serif" font-size="9" fill="#fff" font-weight="700">B</text>
  <line x1="218" y1="92" x2="265" y2="92" stroke="#34D399" stroke-width="2" stroke-dasharray="5 4" opacity="0.6"/>
  <polygon points="265,86 278,92 265,98" fill="#34D399" opacity="0.8"/>
  <text x="228" y="87" font-family="monospace" font-size="8" fill="#34D399" opacity="0.7">8 min</text>
  <circle cx="320" cy="80" r="18" fill="#34D399" opacity="0.2"/>
  <circle cx="320" cy="80" r="10" fill="#34D399" opacity="0.5"/>
  <text x="315" y="84" font-family="Inter, sans-serif" font-size="9" fill="#fff" font-weight="700">C</text>
  <rect x="45" y="125" width="140" height="36" rx="6" fill="#F59E0B" opacity="0.1"/>
  <circle cx="62" cy="143" r="6" fill="#EF4444" opacity="0.6"/>
  <text x="75" y="148" font-family="monospace" font-size="10" fill="#F59E0B" font-weight="600">A* Algorithm</text>
  <rect x="200" y="125" width="140" height="36" rx="6" fill="#F59E0B" opacity="0.1"/>
  <circle cx="217" cy="143" r="6" fill="#34D399" opacity="0.6"/>
  <text x="230" y="148" font-family="monospace" font-size="10" fill="#34D399" font-weight="600">Total: 20 min</text>
  <rect x="70" y="175" width="100" height="22" rx="4" fill="#F59E0B" opacity="0.2"/>
  <text x="82" y="191" font-family="Inter, sans-serif" font-size="9" fill="#F59E0B">🚀 Route Optimized</text>
</svg>